HIERARCHY
ROOT ROOT
{
	OFFSET 0.000000 56.020000 -5.659234
	CHANNELS 6 Xposition Yposition Zposition Xrotation Yrotation Zrotation 
	JOINT C_spine0001_bind_JNT
	{
		OFFSET 0.000000 1.618999 0.000000
		CHANNELS 3 Xrotation Yrotation Zrotation
		JOINT C_spine0002_bind_JNT
		{
			OFFSET 0.000000 4.942001 0.000001
			CHANNELS 3 Xrotation Yrotation Zrotation
			JOINT C_spine0003_bind_JNT
			{
				OFFSET 0.000000 4.942001 -0.000000
				CHANNELS 3 Xrotation Yrotation Zrotation
				JOINT C_neck0001_bind_JNT
				{
					OFFSET 0.000000 17.026009 -0.000000
					CHANNELS 3 Xrotation Yrotation Zrotation
					JOINT C_neck0002_bind_JNT
					{
						OFFSET 0.000000 3.249985 0.000000
						CHANNELS 3 Xrotation Yrotation Zrotation
						JOINT C_head_bind_JNT
						{
							OFFSET 0.000000 5.278008 0.000000
							CHANNELS 3 Xrotation Yrotation Zrotation
							End Site
							{
								OFFSET 0.000000 0.000000 0.000000
							}
						}
					}
				}
				JOINT L_clavicle_bind_JNT
				{
					OFFSET 4.590000 12.067001 0.834000
					CHANNELS 3 Xrotation Yrotation Zrotation
					JOINT L_armUpper0001_bind_JNT
					{
						OFFSET 7.812635 0.512001 -3.452945
						CHANNELS 3 Xrotation Yrotation Zrotation
						JOINT L_armLower0001_bind_JNT
						{
							OFFSET 15.265892 -6.552116 -0.058157
							CHANNELS 3 Xrotation Yrotation Zrotation
							JOINT L_hand0001_bind_JNT
							{
								OFFSET 14.747667 -6.369995 5.049225
								CHANNELS 3 Xrotation Yrotation Zrotation
								End Site
								{
									OFFSET 0.000000 0.000000 0.000000
								}
							}
						}
					}
				}
				JOINT R_clavicle_bind_JNT
				{
					OFFSET -4.590000 12.067001 0.834000
					CHANNELS 3 Xrotation Yrotation Zrotation
					JOINT R_armUpper0001_bind_JNT
					{
						OFFSET -7.812635 0.512001 -3.452945
						CHANNELS 3 Xrotation Yrotation Zrotation
						JOINT R_armLower0001_bind_JNT
						{
							OFFSET -15.265890 -6.552124 -0.058160
							CHANNELS 3 Xrotation Yrotation Zrotation
							JOINT R_hand0001_bind_JNT
							{
								OFFSET -14.746784 -6.369629 5.048937
								CHANNELS 3 Xrotation Yrotation Zrotation
								End Site
								{
									OFFSET 0.000000 0.000000 0.000000
								}
							}
						}
					}
				}
			}
		}
	}
	JOINT C_pelvis0001_bind_JNT
	{
		OFFSET -0.000000 0.000000 0.000000
		CHANNELS 3 Xrotation Yrotation Zrotation
		JOINT L_legUpper0001_bind_JNT
		{
			OFFSET 6.599999 -6.027000 0.539000
			CHANNELS 3 Xrotation Yrotation Zrotation
			JOINT L_legLower0001_bind_JNT
			{
				OFFSET -0.140713 -19.187443 0.040261
				CHANNELS 3 Xrotation Yrotation Zrotation
				JOINT L_foot0001_bind_JNT
				{
					OFFSET -0.132215 -18.028637 -1.138370
					CHANNELS 3 Xrotation Yrotation Zrotation
					JOINT L_foot0002_bind_JNT
					{
						OFFSET 0.007014 -4.693133 9.886524
						CHANNELS 3 Xrotation Yrotation Zrotation
						End Site
						{
							OFFSET 0.000000 0.000000 0.000000
						}
					}
				}
			}
		}
		JOINT R_legUpper0001_bind_JNT
		{
			OFFSET -6.599999 -6.027000 0.539000
			CHANNELS 3 Xrotation Yrotation Zrotation
			JOINT R_legLower0001_bind_JNT
			{
				OFFSET 0.140710 -19.187164 0.040550
				CHANNELS 3 Xrotation Yrotation Zrotation
				JOINT R_foot0001_bind_JNT
				{
					OFFSET 0.132215 -18.028633 -1.138362
					CHANNELS 3 Xrotation Yrotation Zrotation
					JOINT R_foot0002_bind_JNT
					{
						OFFSET -0.007014 -4.693128 9.886505
						CHANNELS 3 Xrotation Yrotation Zrotation
						End Site
						{
							OFFSET 0.000000 0.000000 0.000000
						}
					}
				}
			}
		}
	}
}
MOTION
Frames: 13
Frame Time: 0.033333
0.000000 49.625298 0.000000 0.040696 -9.646102 -0.019107 5.294250 9.894009 -0.890375 -3.429827 1.091305 -0.587176 6.250617 1.106246 -0.858200 18.724842 -2.094531 1.541317 -0.106210 0.228028 -0.096236 -3.363387 -3.451356 3.052616 12.553913 1.717309 9.695403 -24.126278 -4.922307 -72.276146 11.494534 21.999256 1.253503 -4.945071 -12.924399 -32.610519 12.804499 -2.725580 -10.362753 -26.923542 10.012568 73.939331 -1.853335 -20.777925 7.277485 -2.826702 6.148986 20.065191 5.098442 7.940569 0.209648 -6.207844 -11.103909 -4.276124 5.933727 -0.440244 -2.277105 -3.635021 3.356983 2.782372 -3.062223 0.363803 0.796683 -10.524346 -1.052948 -2.167459 18.997896 -0.168660 0.754071 -7.115654 9.143578 0.297945 -4.672394 1.826849 -0.491976 
0.335786 49.696472 0.131363 0.032375 -9.811838 -0.037910 5.302439 9.780718 -1.022816 -3.831956 0.928445 -0.177278 6.209643 1.007908 -1.007018 18.867748 -2.113703 1.587902 0.205370 -0.006694 -0.074659 -1.681077 -3.302583 3.266812 13.849345 2.515363 8.616459 -24.904181 -5.614319 -71.420692 10.683910 20.971052 1.122529 -3.246795 -12.802024 -32.958279 14.021083 -3.058960 -10.528253 -27.819330 10.359556 73.375847 -1.628161 -19.922842 7.764132 -3.260556 6.209682 19.611626 4.783730 8.077769 -0.011420 -6.105472 -11.124829 -4.023343 6.879586 -0.152489 -2.614986 -3.997482 3.364008 3.441056 -2.850446 0.491982 0.841304 -12.668780 -0.407330 -2.350322 22.771364 -1.586592 1.271104 -6.444634 8.750897 0.492499 -4.733904 1.411803 -0.640529 
0.415263 49.794613 0.043104 0.021247 -10.088801 -0.038809 6.005123 10.007028 -1.475723 -3.492793 0.804773 -0.295501 6.195917 0.630708 -1.284539 18.791742 -2.116926 1.624254 -0.029720 0.322434 0.177702 -1.488674 -3.486593 2.904708 13.068178 2.659560 8.361415 -24.891596 -5.345584 -70.180435 11.377151 21.082445 1.096617 -2.962093 -12.444464 -32.911594 13.948360 -3.137755 -10.004306 -28.720144 10.471866 73.762993 -2.423219 -19.500208 6.781734 -2.295553 5.779353 19.705278 5.068907 8.809853 0.025897 -6.072360 -11.690040 -4.764055 6.234755 0.288149 -2.623565 -3.716833 2.522740 4.013721 -2.638389 0.185863 0.741972 -15.933326 -0.405354 -2.970160 26.748871 -2.025389 2.032927 -6.029046 9.291620 0.016036 -2.859398 2.123784 -1.079049 
0.703366 49.893929 0.179448 0.044357 -9.985374 -0.040280 6.061709 9.973290 -1.208146 -3.468888 0.579231 -0.481417 6.183174 0.394517 -1.359485 18.852446 -1.790379 1.454040 0.110205 0.101548 -0.097332 -1.450236 -3.341823 3.008183 13.357970 2.987829 8.091343 -25.445322 -5.530696 -69.844246 11.489429 21.143951 0.993217 -2.951433 -12.399482 -33.158585 13.806793 -2.962556 -10.326772 -28.388311 10.071389 74.066154 -3.025063 -19.144842 6.289431 -2.192052 6.397363 19.250189 4.842038 8.659479 -0.246546 -5.330175 -11.609283 -4.798156 5.850641 0.215896 -2.236097 -3.715194 2.637264 4.012467 -2.371824 0.540989 0.855259 -18.245144 -0.479680 -3.280196 29.737129 -2.093823 2.148684 -5.911499 9.527904 0.340658 -0.191734 1.954691 -1.772575 
0.921922 49.976292 0.234112 0.026506 -10.305909 -0.023075 6.052391 10.295039 -1.503620 -3.230059 0.534789 -0.325034 6.207564 0.343806 -1.662885 19.257252 -1.890997 1.632264 0.223334 0.025579 0.156347 -0.678572 -3.018913 2.780972 13.194965 3.137912 8.578007 -25.974339 -5.973171 -70.081795 10.926764 21.484165 0.719431 -2.963560 -11.863757 -32.496086 13.839674 -3.365787 -10.335088 -28.782419 9.967829 74.356117 -3.219948 -18.905617 6.095222 -2.738400 6.812229 19.229750 5.008422 9.088884 -0.452348 -5.606610 -11.416377 -4.763280 5.696945 0.214578 -2.059928 -3.254372 3.036196 3.911995 -2.626419 0.225375 0.799554 -20.639967 -0.664409 -3.549879 31.751547 -2.002640 2.256380 -5.815570 9.353072 0.419814 1.664976 2.142256 -1.992664 
1.002317 49.884254 0.490421 0.025290 -10.220356 -0.033577 6.177267 9.948021 -1.179993 -3.406911 0.739401 -0.616864 6.435068 0.302755 -1.779236 19.436411 -1.800410 1.716671 0.051515 0.043389 -0.071823 -0.244144 -3.244946 2.755018 12.983951 3.179082 8.324458 -26.178177 -6.050518 -69.527870 10.608009 21.071365 0.386335 -2.667850 -12.249365 -31.961210 13.698242 -3.334573 -10.068155 -28.910072 10.092111 74.407921 -3.751991 -18.335629 6.011577 -2.952719 7.135170 19.097002 5.087519 8.932151 -0.600574 -5.081002 -11.601650 -4.677370 5.101883 0.261139 -1.977585 -3.145459 3.176640 4.077853 -2.599692 0.384104 0.806299 -21.791313 -0.892127 -3.363737 32.286785 -1.939425 1.878861 -6.016652 9.850761 0.285189 2.321680 2.172389 -1.952031 
1.113482 49.965015 0.494396 0.034165 -10.187562 -0.026904 6.203401 10.015976 -1.345757 -3.364923 0.642927 -0.487053 6.457217 0.413252 -1.737229 19.821114 -1.925644 1.613093 0.081322 0.009930 0.171913 0.089002 -3.137080 2.684289 13.030763 2.697433 8.091538 -27.331272 -5.940206 -69.344658 10.637816 21.177774 0.457549 -3.075969 -12.312416 -31.592127 13.644052 -3.469826 -9.780809 -29.001272 10.271132 74.188614 -3.803203 -18.412857 5.940002 -3.148368 7.944433 19.137732 5.144808 8.776259 -0.902848 -5.233913 -11.719534 -4.700480 4.945268 0.476260 -2.055868 -2.890083 2.955593 4.260535 -2.765216 0.387690 0.971807 -23.094519 -0.880387 -3.238174 32.482300 -1.698956 1.969803 -5.972204 9.913096 0.241837 2.561912 2.376644 -1.956307 
1.104264 49.951313 0.540440 0.027737 -10.081597 -0.035553 6.298238 9.993272 -1.545820 -3.277340 0.765081 -0.442638 6.675395 0.524754 -1.596296 19.958902 -2.000177 1.692209 0.136067 -0.047762 -0.023098 0.100105 -3.521659 2.785191 12.951566 2.186777 7.470902 -28.133354 -6.027474 -68.733055 10.589687 21.169102 0.464652 -3.392259 -12.742363 -31.318642 13.485017 -3.491397 -9.279324 -29.367449 10.709155 73.970184 -3.971905 -18.589628 5.858982 -3.225288 7.930296 19.023014 5.268984 8.829137 -1.177639 -5.152601 -11.859628 -4.266833 4.847460 0.332235 -2.200997 -2.614762 2.745796 4.134689 -2.997553 0.315284 1.361717 -24.361502 -1.228942 -2.876247 31.920273 -1.500430 1.719700 -5.241979 10.167793 0.276104 2.579082 2.310557 -1.749304 
1.116021 49.924820 0.538154 0.039695 -9.998064 -0.034731 6.349575 10.197601 -1.588920 -3.175586 0.732450 -0.426836 7.003822 0.605961 -1.426158 19.825392 -2.113984 1.580879 0.231079 0.110350 -0.071400 0.245050 -3.803524 2.887909 12.887870 1.612551 6.786600 -29.088428 -6.265252 -67.980392 10.301747 20.627747 0.591271 -3.029069 -12.874072 -31.196089 13.191958 -3.442723 -9.000751 -29.889965 11.163960 73.363464 -3.729412 -19.050039 6.183411 -3.561636 8.313643 18.928213 4.980261 9.062667 -1.402549 -4.279522 -11.908441 -3.491914 4.462166 -0.089589 -2.087502 -2.639035 2.617154 3.749275 -3.013006 0.247427 1.316173 -24.967394 -2.107386 -2.667287 31.311672 -1.014061 1.423573 -5.287241 10.803852 0.614942 2.809401 2.531186 -1.471244 
1.037194 49.946487 0.580100 0.028346 -9.822385 -0.024268 6.655769 10.467237 -1.726701 -3.232956 0.699229 -0.425455 7.208974 0.507113 -1.521606 19.911844 -2.094963 1.646566 0.306196 0.069402 0.016840 0.315360 -3.830892 3.065865 12.808053 1.733993 6.486082 -29.811419 -6.794479 -67.798561 10.828132 20.112558 0.658108 -3.661258 -13.024629 -30.973595 13.384506 -3.355863 -8.572549 -30.808533 11.849301 73.115555 -3.722581 -19.409355 6.361756 -3.533426 7.972021 18.599962 5.150554 9.416965 -1.568200 -3.972924 -12.132593 -3.233014 4.276070 -0.263505 -2.083707 -2.831788 2.409986 3.553582 -3.056005 -0.009846 1.272491 -25.558655 -2.799374 -2.355707 30.007372 -0.610332 0.990638 -4.945046 11.417268 0.961835 2.021215 2.381693 -1.196906 
0.923920 49.855728 0.661614 0.034939 -9.452450 -0.025176 6.969647 10.193202 -1.724005 -3.187285 0.839919 -0.434978 7.482831 0.745894 -1.482452 20.056154 -2.215198 1.676378 0.333517 0.125874 0.033242 0.924933 -4.143052 3.325457 12.901641 1.619410 6.193990 -31.120304 -7.296173 -67.764862 11.738504 19.761158 0.875993 -3.933915 -13.262198 -31.455112 13.499846 -3.463175 -8.421494 -31.823915 12.276311 73.150688 -3.709559 -20.052193 6.231222 -3.848890 8.098064 18.532446 5.262066 9.047306 -1.456555 -3.840830 -12.052963 -2.955825 3.876840 -0.813239 -2.196457 -2.806543 3.083054 3.436209 -3.004987 -0.016344 1.259668 -25.416447 -3.733992 -1.964301 27.659695 0.496853 0.425521 -5.335515 12.129640 1.414814 1.648029 2.413343 -0.902320 
0.827431 49.929657 0.797779 0.031632 -9.538257 -0.032578 7.448753 10.626718 -1.835020 -3.199718 0.836452 -0.424165 7.727150 0.697400 -1.495477 20.067400 -2.241860 1.878634 0.281553 0.117137 -0.214744 0.986338 -4.173442 3.383690 12.703353 1.884524 5.898545 -31.873632 -8.135831 -67.724907 12.136454 19.519529 1.162615 -3.940120 -13.314495 -31.066271 13.557776 -3.478105 -8.335461 -32.381287 12.933657 73.283134 -4.219751 -20.361563 6.269625 -4.032566 8.101570 18.207359 5.643542 9.565289 -1.469390 -3.882362 -12.203555 -2.884516 3.452560 -0.994123 -2.104312 -2.567900 3.064461 3.338010 -3.109026 -0.011943 1.101224 -25.292103 -4.283749 -1.832832 25.038837 1.022005 0.402550 -4.400638 12.977185 1.719445 -0.192453 2.559567 -0.551746 
0.758069 49.931301 1.062260 0.037076 -9.274797 -0.027425 7.635537 10.655040 -1.788436 -3.100414 0.850645 -0.271337 7.767198 0.779450 -1.691736 20.305851 -2.415745 1.979311 0.220085 0.171455 -0.198472 1.254359 -4.488167 3.481101 13.040237 1.955945 5.829113 -32.824764 -8.719224 -67.636490 12.502461 19.395021 1.043558 -3.888830 -13.814288 -31.071348 13.696337 -3.561347 -8.434345 -32.671871 12.881317 73.829918 -3.882372 -20.607174 6.187063 -4.629875 8.140534 17.847271 5.758948 9.386555 -1.291386 -4.059566 -12.404038 -2.929265 3.202084 -0.983698 -2.294241 -2.461442 3.463580 3.355743 -3.004350 0.090810 1.041222 -25.124884 -4.863446 -1.979039 22.422941 1.789115 0.423679 -3.882327 13.747835 2.315894 -0.727445 2.476427 -0.480494 
